<svg width="76" height="19" viewBox="0 0 76 19" fill="none" xmlns="http://www.w3.org/2000/svg">
    <path d="M0 10.6193V9.42614L9.60511 4.53409V6.44318L2.23722 9.9929L2.29688 9.87358V10.1719L2.23722 10.0526L9.60511 13.6023V15.5114L0 10.6193Z" fill="#F41C2F"/>
    <path d="M66.892 0L61.9702 18.2855H60.3594L65.2812 0H66.892Z" fill="#F41C2F"/>
    <path d="M75.5205 10.6193L65.9154 15.5114V13.6023L73.2832 10.0526L73.2236 10.1719V9.87358L73.2832 9.9929L65.9154 6.44318V4.53409L75.5205 9.42614V10.6193Z" fill="#F41C2F"/>
    <path d="M26.8196 15.5687C26.8196 15.8487 26.6536 15.9886 26.3216 15.9886H23.9778C23.7304 15.9886 23.457 15.9007 23.1575 15.725C22.8645 15.5427 22.6399 15.3246 22.4837 15.0707L20.8235 12.473C20.1399 11.4053 19.3131 10.8714 18.343 10.8714H15.9602V15.0707C15.9602 15.3246 15.8691 15.5427 15.6868 15.725C15.511 15.9007 15.2962 15.9886 15.0423 15.9886H13.2063C12.9524 15.9886 12.7343 15.9007 12.552 15.725C12.3697 15.5427 12.2786 15.3246 12.2786 15.0707V2.91247C12.2786 2.65856 12.3665 2.44046 12.5423 2.25817C12.718 2.07588 12.9329 1.98473 13.1868 1.98473H21.2434C22.7343 1.98473 23.955 2.38512 24.9055 3.1859C25.8626 3.98668 26.3411 5.06741 26.3411 6.42809C26.3411 8.32262 25.1139 9.51077 22.6594 9.99254C23.0501 10.1358 23.4114 10.3832 23.7434 10.7347C24.0755 11.0798 24.4563 11.5843 24.886 12.2484L26.6634 15.0707C26.7675 15.253 26.8196 15.419 26.8196 15.5687ZM15.9602 8.10778H20.1204C20.791 8.10778 21.3801 7.97431 21.888 7.70739C22.4023 7.44046 22.6594 7.01403 22.6594 6.42809C22.6594 5.84215 22.4023 5.41572 21.888 5.14879C21.3801 4.88187 20.791 4.7484 20.1204 4.7484H15.9602V8.10778Z" fill="white"/>
    <path d="M27.2981 15.0902L29.7493 5.79332C30.4134 3.26077 32.5748 1.99124 36.2337 1.98473H41.4973C41.7382 1.98473 41.9368 2.07588 42.093 2.25817C42.2558 2.44046 42.3372 2.65205 42.3372 2.89293V15.0902C42.3372 15.3441 42.246 15.5589 42.0637 15.7347C41.8815 15.904 41.6634 15.9886 41.4094 15.9886H39.5735C39.3066 15.9886 39.0852 15.904 38.9094 15.7347C38.7402 15.5589 38.6555 15.3376 38.6555 15.0707V12.6097H31.7122L31.0579 15.0707C30.9928 15.3376 30.8463 15.5589 30.6184 15.7347C30.3906 15.904 30.1497 15.9886 29.8958 15.9886H27.9719C27.718 15.9886 27.5357 15.917 27.4251 15.7738C27.3144 15.6241 27.2591 15.4938 27.2591 15.3832C27.2656 15.2725 27.2786 15.1748 27.2981 15.0902ZM32.4348 9.84606H38.6555V4.7484H35.8723C35.2473 4.7484 34.7005 4.92744 34.2317 5.28551C33.7695 5.63707 33.457 6.11234 33.2942 6.71129L32.4348 9.84606Z" fill="white"/>
    <path d="M51.0384 16.0668C48.8769 16.0668 47.2167 15.4841 46.0579 14.3187C44.9055 13.1534 44.3294 11.3728 44.3294 8.97692C44.3294 6.57457 44.9316 4.79723 46.136 3.64489C47.3469 2.48603 49.1601 1.90661 51.5755 1.90661H53.7532C55.192 1.90661 56.4876 2.25166 57.6399 2.94176C58.7988 3.62536 59.3782 4.48148 59.3782 5.51012C59.3782 5.89424 59.2643 6.17093 59.0364 6.3402C58.8085 6.50296 58.5872 6.58434 58.3723 6.58434H57.2102C56.6503 6.58434 56.2044 6.26533 55.8723 5.62731C55.5403 4.98929 54.72 4.67028 53.4114 4.67028H51.6731C50.2473 4.67028 49.2805 4.97627 48.7727 5.58825C48.2649 6.20023 48.011 7.32653 48.011 8.96715C48.011 10.6078 48.2389 11.7438 48.6946 12.3754C49.1503 13.0004 49.9641 13.3129 51.136 13.3129H53.138C54.1861 13.3129 54.9348 13.1143 55.3841 12.7172C55.8333 12.3135 56.0644 11.7373 56.0774 10.9886H53.8704C53.6165 10.9886 53.3984 10.9007 53.2161 10.725C53.0403 10.5427 52.9524 10.3246 52.9524 10.0707V9.30895C52.9524 9.05504 53.0403 8.8402 53.2161 8.66442C53.3984 8.48213 53.6165 8.39098 53.8704 8.39098H58.7727C59.0266 8.39098 59.2415 8.48213 59.4173 8.66442C59.5996 8.8402 59.6907 9.05504 59.6907 9.30895V10.3929C59.6907 12.2159 59.1438 13.6188 58.0501 14.6019C56.9563 15.5785 55.3515 16.0668 53.2356 16.0668H51.0384Z" fill="white"/>
</svg>