<svg width="48" height="48" viewBox="0 0 48 48" fill="none" xmlns="http://www.w3.org/2000/svg">
<path d="M48 45.6206C48 46.5402 47.452 47 46.3559 47H38.6192C37.8026 47 36.8999 46.7113 35.9113 46.1339C34.9443 45.5351 34.2028 44.8187 33.687 43.9847L28.2068 35.4519C25.9503 31.9447 23.221 30.1911 20.0188 30.1911H12.1531V43.9847C12.1531 44.8187 11.8522 45.5351 11.2505 46.1339C10.6702 46.7113 9.96105 47 9.1229 47H3.06246C2.22431 47 1.50437 46.7113 0.902619 46.1339C0.300873 45.5351 0 44.8187 0 43.9847V4.04742C0 3.21339 0.290128 2.49698 0.870383 1.89819C1.45064 1.2994 2.15984 1 2.99799 1H29.593C34.5144 1 38.544 2.3152 41.6817 4.94561C44.8408 7.57601 46.4204 11.126 46.4204 15.5955C46.4204 21.8187 42.3694 25.7215 34.2673 27.304C35.5567 27.7745 36.7495 28.5872 37.8455 29.742C38.9416 30.8754 40.1988 32.5328 41.6172 34.7141L47.4842 43.9847C47.8281 44.5834 48 45.1288 48 45.6206ZM12.1531 21.113H25.8858C28.0994 21.113 30.0443 20.6746 31.7206 19.7978C33.4184 18.921 34.2673 17.5202 34.2673 15.5955C34.2673 13.6709 33.4184 12.2701 31.7206 11.3933C30.0443 10.5165 28.0994 10.0781 25.8858 10.0781H12.1531V21.113Z" fill="#F41C2F"/>
</svg>
