<svg width="48" height="48" viewBox="0 0 48 48" fill="none" xmlns="http://www.w3.org/2000/svg">
<g clip-path="url(#clip0_1_17)">
<path d="M8.4725 47V0.279999H23.5125C26.8405 0.279999 29.7205 0.855999 32.1525 2.008C34.5845 3.16 36.4618 4.80266 37.7845 6.936C39.1498 9.06933 39.8325 11.5867 39.8325 14.488C39.8325 17.5173 39.0858 20.2267 37.5925 22.616C36.1418 25.0053 34.1578 26.7333 31.6405 27.8L40.4725 47H30.0405L22.4885 29.336H18.0085V47H8.4725ZM18.0085 21.016H23.5125C25.6458 21.016 27.2885 20.4827 28.4405 19.416C29.6352 18.3493 30.2325 16.856 30.2325 14.936C30.2325 12.9307 29.6352 11.3733 28.4405 10.264C27.2885 9.15467 25.6458 8.6 23.5125 8.6H18.0085V21.016Z" fill="#DF3A3A"/>
</g>
<defs>
<clipPath id="clip0_1_17">
<rect width="48" height="48" fill="white"/>
</clipPath>
</defs>
</svg>
