<svg width="464" height="466" viewBox="0 0 464 466" fill="none" xmlns="http://www.w3.org/2000/svg">
<path d="M173.801 221.101H280.601C310.301 221.101 334.001 196.601 334.001 166.801V64.9013C334.001 35.9013 309.601 14.2013 280.601 9.30129C244.801 3.40129 205.901 3.70129 173.801 9.40129C128.601 17.4013 120.401 34.1013 120.401 65.0013V105.701H227.301V119.301H80.3008C49.2008 119.301 22.0008 138.001 13.5008 173.501C3.70075 214.201 3.30075 239.601 13.5008 282.101C21.1007 313.701 39.2008 336.301 70.3008 336.301H107.001V287.501C107.001 252.201 137.501 221.101 173.801 221.101ZM167.201 37.7013C178.501 37.7013 187.601 46.8013 187.601 58.1013C187.601 69.4013 178.501 78.5013 167.201 78.5013C155.901 78.5013 146.801 69.4013 146.801 58.1013C146.801 46.8013 155.901 37.7013 167.201 37.7013Z" fill="#3770A0"/>
<path d="M450.5 182.2C442.8 151.3 428.2 128 397.1 128H357V175.4C357 212.2 325.8 243.2 290.2 243.2H183.4C154.2 243.2 130 268.2 130 297.5V399.3C130 428.3 155.2 445.3 183.4 453.6C217.2 463.5 249.7 465.3 290.2 453.6C317.1 445.8 343.6 430.1 343.6 399.3V358.6H236.9V345H397.1C428.2 345 439.7 323.3 450.5 290.8C461.7 257.3 461.2 225.1 450.5 182.2ZM296.9 426.4C289.3 426.9 282 423.2 278 416.7C274.1 410.1 274.1 402 278 395.4C282 388.9 289.3 385.2 296.9 385.7C304.5 385.2 311.8 388.9 315.8 395.4C319.7 402 319.7 410.1 315.8 416.7C311.8 423.2 304.5 426.9 296.9 426.4Z" fill="#FFD03E"/>
</svg>
