<svg width="610" height="670" viewBox="0 0 610 670" fill="none" xmlns="http://www.w3.org/2000/svg">
<path fill-rule="evenodd" clip-rule="evenodd" d="M109.543 448.765C109.546 470.904 114.679 490.534 124.96 506.907L89.044 546.293C85.2342 550.798 88.0352 553.917 92.0664 558.347L120.249 589.077C124.136 593.574 126.775 596.36 130.742 591.936L169.675 549.329C178.429 552.84 199.421 558.963 231.17 553.856L255.429 533.871C257.3 532.33 260.482 530.084 262.524 528.863L284.507 515.717L266.889 535.195C265.248 537.01 262.409 539.724 260.53 541.272L239.65 558.473L275.355 665.454C276.085 667.652 277.78 669.287 279.858 669.814C281.935 670.356 284.113 669.693 285.663 668.083L369.524 580.757C370.501 579.737 371.153 578.421 371.399 576.96L390.197 461.93C413.071 440.282 436.214 415.096 459.032 387.047C590.393 225.541 610 99.2922 610 38.4176C610 18.3783 607.777 7.33445 607.687 6.86798C607.125 4.12691 605.103 2.03951 602.576 1.56056C596.041 0.331217 440.314 -25.936 237.657 195.784C237.399 196.078 211.067 225.798 182.735 267.484L78.6609 299.157C77.4146 299.525 76.3152 300.323 75.4839 301.405L1.46017 398.793C0.504783 400.058 0 401.618 0 403.216C0 403.904 0.0898313 404.567 0.280908 405.242C0.909751 407.48 2.51537 409.211 4.55875 409.862L104.058 441.538L120.68 420.634C122.217 418.7 124.902 415.787 126.676 414.127L145.396 396.612L132.136 419.316C130.879 421.468 128.621 424.772 127.077 426.714L109.543 448.765ZM329.182 212.785C362.128 176.766 409.041 169.664 433.973 196.921C458.907 224.179 452.41 275.467 419.463 311.486C386.515 347.507 339.602 354.609 314.669 327.35C289.737 300.093 296.233 248.806 329.182 212.785Z" fill="#D33847"/>
</svg>
